<?xml version="1.0" encoding="utf-8"?>
<!-- Generator: Adobe Illustrator 27.0.0, SVG Export Plug-In . SVG Version: 6.00 Build 0)  -->
<svg version="1.1" id="Layer_1" xmlns="http://www.w3.org/2000/svg" xmlns:xlink="http://www.w3.org/1999/xlink" x="0px" y="0px"
	 viewBox="0 0 464 464" style="enable-background:new 0 0 464 464;" xml:space="preserve">
<style type="text/css">
	.st0{fill:none;stroke:#8094D1;stroke-width:2;}
	.st1{fill:#0029A3;}
</style>
<g>
	<path vector-effect="non-scaling-stroke" class="st0" d="M246.7,39c0-6.7-5.4-12.1-12.1-12.1c0,0,0,0,0,0
		c-6.7,0-12.1,5.4-12.1,12.1s5.4,12.1,12.1,12.1C241.3,51.1,246.7,45.7,246.7,39C246.7,39,246.7,39,246.7,39"/>
	<path vector-effect="non-scaling-stroke" class="st0" d="M347.9,47.5c0-5.3-4.3-9.5-9.5-9.5c0,0,0,0,0,0c-5.3,0-9.5,4.3-9.5,9.5
		s4.3,9.5,9.5,9.6C343.6,57.1,347.9,52.8,347.9,47.5C347.9,47.5,347.9,47.5,347.9,47.5"/>
	<path vector-effect="non-scaling-stroke" class="st0" d="M140.5,47.9c0-5.3-4.3-9.5-9.5-9.5c-5.3,0-9.5,4.3-9.5,9.5
		s4.3,9.5,9.5,9.5l0,0C136.3,57.5,140.5,53.2,140.5,47.9"/>
	<path vector-effect="non-scaling-stroke" class="st0" d="M326,94.8c0-8.1-6.6-14.7-14.7-14.7c-8.1,0-14.7,6.6-14.7,14.7
		s6.6,14.7,14.7,14.7C319.5,109.5,326,102.9,326,94.8"/>
	<path vector-effect="non-scaling-stroke" class="st0" d="M173,95.1c0-8.1-6.6-14.7-14.6-14.7h0c-8.1,0-14.6,6.6-14.6,14.7
		s6.6,14.7,14.6,14.7C166.4,109.8,173,103.2,173,95.1C173,95.1,173,95.1,173,95.1"/>
	<path vector-effect="non-scaling-stroke" class="st0" d="M252,109.5c0-9.5-7.7-17.3-17.3-17.3c-9.5,0-17.3,7.7-17.3,17.3
		c0,0,0,0,0,0c0,9.5,7.7,17.3,17.3,17.3h0C244.3,126.8,252,119,252,109.5"/>
	<path vector-effect="non-scaling-stroke" class="st0" d="M410,132.9c0-6.7-5.4-12.1-12.1-12.1s-12.1,5.4-12.1,12.1
		c0,6.7,5.4,12.1,12.1,12.1S410,139.6,410,132.9"/>
	<path vector-effect="non-scaling-stroke" class="st0" d="M83.9,133.5c0-6.7-5.4-12.1-12.1-12.1s-12.1,5.4-12.1,12.1
		c0,6.7,5.4,12.1,12.1,12.1S83.9,140.2,83.9,133.5"/>
	<path vector-effect="non-scaling-stroke" class="st0" d="M229.9,167.8c0-16.2-13.1-29.3-29.3-29.3s-29.3,13.1-29.3,29.3
		s13.1,29.3,29.3,29.3l0,0C216.8,197.1,229.9,184,229.9,167.8L229.9,167.8"/>
	<path vector-effect="non-scaling-stroke" class="st0" d="M298.6,167.6c0-16.2-13.1-29.3-29.3-29.3c-16.2,0-29.3,13.1-29.3,29.3l0,0
		c0,16.2,13.1,29.3,29.3,29.3c0,0,0,0,0,0C285.5,196.9,298.6,183.8,298.6,167.6"/>
	<path vector-effect="non-scaling-stroke" class="st0" d="M354.2,168.2c0-9.5-7.7-17.2-17.2-17.2l0,0c-9.5,0-17.2,7.7-17.2,17.2
		s7.7,17.2,17.2,17.2C346.5,185.4,354.2,177.7,354.2,168.2L354.2,168.2"/>
	<path vector-effect="non-scaling-stroke" class="st0" d="M150.1,168.7c0-9.5-7.7-17.2-17.2-17.2s-17.2,7.7-17.2,17.2
		s7.7,17.2,17.2,17.2S150.1,178.2,150.1,168.7"/>
	<path vector-effect="non-scaling-stroke" class="st0" d="M333.2,227.2c0-16.2-13.1-29.3-29.3-29.3s-29.3,13.1-29.3,29.3
		s13.1,29.3,29.3,29.3l0,0C320,256.5,333.2,243.4,333.2,227.2L333.2,227.2"/>
	<path vector-effect="non-scaling-stroke" class="st0" d="M195.7,227.5c0-16.2-13.1-29.3-29.3-29.3S137,211.3,137,227.5
		s13.1,29.3,29.3,29.3S195.7,243.7,195.7,227.5"/>
	<path vector-effect="non-scaling-stroke" class="st0" d="M402.8,227.1c0-8.1-6.6-14.7-14.7-14.7h0c-8.1,0-14.7,6.6-14.7,14.7
		s6.6,14.7,14.7,14.7C396.2,241.8,402.8,235.2,402.8,227.1C402.8,227.1,402.8,227.1,402.8,227.1"/>
	<path vector-effect="non-scaling-stroke" class="st0" d="M96.8,227.8c0-8.1-6.6-14.7-14.7-14.7l0,0c-8.1,0-14.7,6.6-14.7,14.7
		c0,8.1,6.6,14.7,14.7,14.7h0C90.2,242.5,96.8,235.9,96.8,227.8L96.8,227.8"/>
	<path vector-effect="non-scaling-stroke" class="st0" d="M452,226.9c0-5.3-4.3-9.5-9.5-9.5c0,0,0,0,0,0c-5.3,0-9.5,4.3-9.5,9.5
		c0,5.3,4.3,9.5,9.5,9.5C447.7,236.4,452,232.2,452,226.9L452,226.9"/>
	<path vector-effect="non-scaling-stroke" class="st0" d="M37.3,227.9c0-5.3-4.3-9.6-9.5-9.6c0,0,0,0,0,0c-5.3,0-9.5,4.3-9.5,9.6
		l0,0c0,5.3,4.3,9.5,9.5,9.5S37.3,233.1,37.3,227.9"/>
	<path vector-effect="non-scaling-stroke" class="st0" d="M298.9,287c0-16.2-13.1-29.3-29.3-29.3c0,0,0,0,0,0
		c-16.2,0-29.3,13.1-29.3,29.3l0,0c0,16.2,13.1,29.3,29.3,29.3S298.9,303.1,298.9,287"/>
	<path vector-effect="non-scaling-stroke" class="st0" d="M230.1,287.1c0-16.2-13.1-29.3-29.3-29.3l0,0c-16.2,0-29.3,13.1-29.3,29.3
		c0,16.2,13.1,29.3,29.3,29.3h0C217,316.4,230.1,303.3,230.1,287.1L230.1,287.1"/>
	<path vector-effect="non-scaling-stroke" class="st0" d="M354.5,286.1c0-9.5-7.7-17.2-17.2-17.2l0,0c-9.5,0-17.2,7.7-17.2,17.2l0,0
		c0,9.5,7.7,17.2,17.2,17.2l0,0C346.8,303.3,354.5,295.6,354.5,286.1L354.5,286.1"/>
	<path vector-effect="non-scaling-stroke" class="st0" d="M150.4,286.6c0-9.5-7.7-17.2-17.2-17.2s-17.2,7.7-17.2,17.2
		c0,9.5,7.7,17.2,17.2,17.2h0C142.7,303.9,150.4,296.1,150.4,286.6L150.4,286.6"/>
	<path vector-effect="non-scaling-stroke" class="st0" d="M410.5,321.2c0-6.7-5.4-12.1-12.1-12.1s-12.1,5.4-12.1,12.1
		s5.4,12.1,12.1,12.1S410.5,327.9,410.5,321.2"/>
	<path vector-effect="non-scaling-stroke" class="st0" d="M84.4,321.9c0-6.7-5.4-12.1-12.1-12.1c0,0,0,0,0,0
		c-6.7,0-12.1,5.4-12.1,12.1l0,0c0,6.7,5.4,12.1,12.1,12.1C79,334.1,84.4,328.6,84.4,321.9"/>
	<path vector-effect="non-scaling-stroke" class="st0" d="M251.4,345.3c0-9.5-7.7-17.3-17.3-17.3l0,0c-9.5,0-17.3,7.7-17.3,17.3
		c0,0,0,0,0,0c0,9.5,7.7,17.3,17.3,17.3h0C243.7,362.5,251.4,354.8,251.4,345.3L251.4,345.3"/>
	<path vector-effect="non-scaling-stroke" class="st0" d="M326.7,359.7c0-8.1-6.6-14.7-14.7-14.7l0,0c-8.1,0-14.7,6.6-14.7,14.7l0,0
		c0,8.1,6.6,14.7,14.7,14.7l0,0C320.1,374.4,326.7,367.8,326.7,359.7L326.7,359.7"/>
	<path vector-effect="non-scaling-stroke" class="st0" d="M173.5,360c0-8.1-6.6-14.7-14.7-14.7c0,0,0,0,0,0
		c-8.1,0-14.7,6.6-14.7,14.7l0,0c0,8.1,6.6,14.7,14.7,14.7c0,0,0,0,0,0C166.9,374.7,173.5,368.1,173.5,360L173.5,360"/>
	<path vector-effect="non-scaling-stroke" class="st0" d="M348.7,406.8c0-5.3-4.3-9.6-9.5-9.6l0,0c-5.3,0-9.6,4.3-9.6,9.5v0
		c0,5.3,4.3,9.5,9.6,9.5l0,0C344.4,416.4,348.7,412.1,348.7,406.8"/>
	<path vector-effect="non-scaling-stroke" class="st0" d="M141.3,407.2c0-5.3-4.3-9.5-9.5-9.5s-9.5,4.3-9.5,9.5s4.3,9.5,9.5,9.5
		S141.3,412.4,141.3,407.2"/>
	<path vector-effect="non-scaling-stroke" class="st0" d="M246.4,415.7c0-6.7-5.4-12.1-12.1-12.1l0,0c-6.7,0-12.1,5.4-12.1,12.1
		s5.4,12.1,12.1,12.1S246.4,422.4,246.4,415.7L246.4,415.7"/>
</g>
<circle class="st1" cx="234.6" cy="39" r="12.1"/>
<circle class="st1" cx="338.3" cy="47.5" r="9.5"/>
<circle class="st1" cx="131" cy="47.9" r="9.5"/>
<circle class="st1" cx="311.3" cy="94.8" r="14.7"/>
<circle class="st1" cx="158.3" cy="95.1" r="14.6"/>
<circle class="st1" cx="234.7" cy="109.5" r="17.3"/>
<circle class="st1" cx="397.8" cy="132.9" r="12.1"/>
<circle class="st1" cx="71.8" cy="133.5" r="12.1"/>
<circle class="st1" cx="200.6" cy="167.8" r="29.3"/>
<ellipse transform="matrix(0.1602 -0.9871 0.9871 0.1602 60.6945 406.6378)" class="st1" cx="269.3" cy="167.6" rx="29.3" ry="29.3"/>
<circle class="st1" cx="337" cy="168.2" r="17.2"/>
<circle class="st1" cx="132.9" cy="168.7" r="17.2"/>
<circle class="st1" cx="303.9" cy="227.2" r="29.3"/>
<circle class="st1" cx="166.3" cy="227.5" r="29.3"/>
<circle class="st1" cx="388" cy="227.1" r="14.7"/>
<circle class="st1" cx="82.1" cy="227.8" r="14.7"/>
<circle class="st1" cx="442.4" cy="226.9" r="9.5"/>
<circle class="st1" cx="27.7" cy="227.9" r="9.6"/>
<circle class="st1" cx="269.6" cy="287" r="29.3"/>
<circle class="st1" cx="200.8" cy="287.1" r="29.3"/>
<circle class="st1" cx="337.3" cy="286.1" r="17.2"/>
<ellipse transform="matrix(7.088900e-02 -0.9975 0.9975 7.088900e-02 -162.1871 399.0975)" class="st1" cx="133.1" cy="286.6" rx="17.2" ry="17.2"/>
<circle class="st1" cx="398.4" cy="321.2" r="12.1"/>
<circle class="st1" cx="72.3" cy="321.9" r="12.1"/>
<circle class="st1" cx="234.1" cy="345.3" r="17.3"/>
<circle class="st1" cx="312" cy="359.7" r="14.7"/>
<circle class="st1" cx="158.8" cy="360" r="14.7"/>
<circle class="st1" cx="339.2" cy="406.8" r="9.5"/>
<circle class="st1" cx="131.7" cy="407.2" r="9.5"/>
<circle class="st1" cx="234.3" cy="415.7" r="12.1"/>
</svg>
