<?xml version="1.0" encoding="utf-8"?>
<!-- Generator: Adobe Illustrator 27.0.0, SVG Export Plug-In . SVG Version: 6.00 Build 0)  -->
<svg version="1.1" id="Layer_1" xmlns="http://www.w3.org/2000/svg" xmlns:xlink="http://www.w3.org/1999/xlink" x="0px" y="0px"
	 viewBox="0 0 519 518" style="enable-background:new 0 0 519 518;" xml:space="preserve">
<style type="text/css">
	.st0{fill:#3099B6;}
</style>
<path class="st0" d="M268.1,42.3c22.6-20.1,49.1-31.3,79.4-33.6c6.4-0.5,12.9-0.4,19.6,0.2c33,3.2,61,16.7,84,40.6
	c18,18.6,29.9,43.4,34,68.5c6.9,42.6-7.1,85.4-37.9,115.3c-32.5,31.5-79.3,44.3-123.2,33c-5.6-1.4-11.8-3.4-18.6-5.9
	c-22.2-8.2-44.3-16.2-66.2-24.1c-0.3-0.1-0.6,0-0.8,0.2c-68.3,61.3-176.9,35.9-210-49.9c-17.5-45.3-8.5-96.4,23.3-133.1
	C56.5,48,61.5,43.1,66.5,39C91.3,18.6,119.8,8.5,152,8.5c14.1,0,28.8,2.8,44.1,8.3c23.5,8.5,47.2,17.1,70.9,25.8
	C267.4,42.7,267.8,42.6,268.1,42.3z M179.2,213.8l13.1-35.9c0.1-0.2,0.3-0.4,0.6-0.3c43.5,15.8,86.7,31.6,129.7,47.2
	c22.8,8.3,44.7,8.4,65.6,0.4c38.3-14.8,62.4-52,59.3-92.6c-5-66.3-76.4-105.3-135-74c-0.1,0-0.1,0.1-0.1,0.2c0,0,0,0.1,0.1,0.1
	l13.8,5c0.3,0.1,0.4,0.4,0.3,0.7l-13.1,36c-0.1,0.2-0.3,0.3-0.5,0.3c0,0,0,0,0,0c-41.7-15.1-84.3-30.6-127.6-46.5
	c-7-2.6-13.2-4.3-18.6-5.3c-17.8-3.2-35-1.3-51.4,5.6c-56.1,23.4-74.5,93.6-36.8,141.4c12.9,16.3,29.5,27,49.8,32.2
	c20.8,5.3,41.6,3.1,62.3-6.4c1.1-0.5,2.1-1.1,3-1.7c0.3-0.2,0.2-0.3-0.1-0.5l-14.1-5.1C179.2,214.5,179,214.2,179.2,213.8z"/>
<path class="st0" d="M177.7,65.8L213.9,79c0.2,0.1,0.3,0.3,0.2,0.4l-47.4,130.2c-0.1,0.2-0.3,0.3-0.4,0.2l-36.2-13.2
	c-0.2-0.1-0.3-0.3-0.2-0.4L177.2,66C177.3,65.8,177.5,65.7,177.7,65.8z"/>
<path class="st0" d="M339.4,68.9l36.3,13.2c0.2,0.1,0.3,0.3,0.2,0.4l-47.4,130.2c-0.1,0.2-0.3,0.3-0.4,0.2l-36.3-13.2
	c-0.2-0.1-0.3-0.3-0.2-0.4L339,69.1C339.1,68.9,339.3,68.8,339.4,68.9z"/>
<circle class="st0" cx="253.2" cy="139.5" r="43.4"/>
<path class="st0" d="M113.9,506.5c0,0.2-0.1,0.3-0.3,0.3H47.8c-0.2,0-0.3-0.1-0.3-0.3V301.8c0-0.2,0.1-0.3,0.3-0.3h65.8
	c0.2,0,0.3,0.1,0.3,0.3V506.5z M108,307.8c0-0.2-0.1-0.3-0.3-0.3H53.8c-0.2,0-0.3,0.1-0.3,0.3v192.7c0,0.2,0.1,0.3,0.3,0.3h0h53.9
	c0.2,0,0.3-0.1,0.3-0.3l0,0V307.8z"/>
<path class="st0" d="M196.6,436.1c-0.1,23.3-0.2,46.7-0.1,70.1c0,0.3-0.2,0.5-0.5,0.5H132c-0.3,0-0.5-0.2-0.5-0.5V301.8
	c0-0.1,0.1-0.3,0.3-0.3c22,0,43.9,0,65.9,0c16.5,0,36.2,1.3,50.8,7.7c12.9,5.6,18.9,17.6,19,31.3c0.1,18.5,0.1,37.2,0,56
	c-0.1,14.6-6.9,27.3-20.7,32.8c-5,2-10.5,3.3-15.9,4c-11.2,1.5-22.6,2.3-33.9,2.2C196.8,435.6,196.6,435.8,196.6,436.1z
	 M191.3,429.5c15.1,0.3,31.6-0.1,46-3.3c16.1-3.6,24.4-14.1,24.4-30.6c0-17.8,0-36.2,0-55.1c0-12.6-5.9-22.7-18.3-27
	c-14.3-5-30.5-6-45.6-6c-20.3,0-40.2,0-59.7,0c-0.4,0-0.6,0.2-0.6,0.6v192.2c0,0.3,0.2,0.5,0.5,0.5h52c0.4,0,0.6-0.2,0.6-0.6l0-70
	C190.6,429.7,190.8,429.5,191.3,429.5z"/>
<path class="st0" d="M425.4,439.9c0-0.1,0-0.1-0.1-0.1s-0.1,0-0.1,0.1L408,506.2c-0.1,0.3-0.4,0.5-0.7,0.5h-45.6
	c-0.3,0-0.5-0.1-0.6-0.4l-21.4-71.6c-0.4-1.2-0.6-1.2-0.6,0.1l0,71.3c0,0.4-0.2,0.6-0.6,0.6h-53.2c-0.4,0-0.6-0.2-0.6-0.6V302
	c0-0.3,0.2-0.5,0.5-0.5l0,0h79.5c0.4,0,0.6,0.2,0.7,0.5l19.3,78c0.2,1,0.5,1,0.7,0l16.8-78.2c0-0.2,0.2-0.3,0.4-0.3h82.8
	c0.3,0,0.5,0.2,0.5,0.5v204.5c0,0.1-0.1,0.2-0.2,0.2l-59.8,0c-0.2,0-0.3-0.2-0.3-0.3l0,0c0-21.4,0-42.7,0-63.9
	C425.6,441.6,425.6,440.8,425.4,439.9z M333.2,394.2c0-1.2,0.2-1.3,0.5-0.1l31.7,106.1c0.1,0.4,0.3,0.5,0.7,0.5h36.5
	c0.3,0,0.6-0.2,0.6-0.5c8.7-33.4,17.5-66.8,26.2-100.3c0.5-1.8,0.8-3.2,1-4.1c0.6-2.8,1-2.8,1,0.1v104.1c0,0.4,0.2,0.6,0.6,0.6h47.4
	c0.3,0,0.5-0.2,0.5-0.5V308c0-0.4-0.2-0.5-0.5-0.5h-71.7c-0.4,0-0.6,0.2-0.7,0.5l-21.2,98.2c-0.2,1-0.4,1-0.7,0l-24.4-98.4
	c-0.1-0.2-0.3-0.4-0.5-0.4h-69.1c-0.4,0-0.5,0.2-0.5,0.5v192.3c0,0.3,0.2,0.5,0.5,0.5h41.3c0.4,0,0.6-0.2,0.6-0.6V394.2z"/>
<path class="st0" d="M190.6,335.5c0-0.1,0.1-0.2,0.2-0.2l0,0h5.2c7,0,12.6,4.4,12.6,9.8v46.8c0,5.4-5.7,9.8-12.6,9.8h-5.2
	c-0.1,0-0.2-0.1-0.2-0.2l0,0V335.5z M196.5,341.6l0.1,53.7c0,0.1,0.1,0.2,0.2,0.2c0,0,0,0,0,0l0.6,0c3,0,5.5-2.3,5.5-5.2l-0.1-43.8
	c0-2.8-2.5-5.2-5.5-5.1c0,0,0,0,0,0l-0.6,0C196.5,341.4,196.5,341.5,196.5,341.6L196.5,341.6z"/>
</svg>
