<?xml version="1.0" encoding="UTF-8" standalone="no"?>
<!DOCTYPE svg PUBLIC "-//W3C//DTD SVG 1.1//EN" "http://www.w3.org/Graphics/SVG/1.1/DTD/svg11.dtd">
<svg xmlns="http://www.w3.org/2000/svg" version="1.1" viewBox="0.00 0.00 563.00 563.00">
<path fill="#3099b6" d="
  M 289.13 57.31
  Q 323.02 27.17 368.53 23.75
  Q 378.16 23.03 388.12 23.98
  Q 437.59 28.73 472.14 64.54
  C 490.10 83.16 502.04 107.97 506.12 133.08
  C 513.03 175.65 498.99 218.51 468.20 248.38
  C 435.70 279.91 388.91 292.71 344.98 281.43
  Q 336.60 279.28 326.42 275.53
  Q 293.05 263.24 260.20 251.40
  A 0.81 0.81 0.0 0 0 259.39 251.56
  C 191.11 312.90 82.53 287.47 49.36 201.67
  C 31.83 156.33 40.86 105.24 72.71 68.53
  Q 79.96 60.16 87.51 53.98
  Q 124.76 23.48 173.00 23.48
  Q 194.18 23.48 217.06 31.74
  Q 252.38 44.50 287.94 57.53
  Q 288.60 57.78 289.13 57.31
  Z
  M 200.19 228.83
  L 213.25 192.96
  A 0.46 0.45 19.4 0 1 213.83 192.69
  Q 279.08 216.45 343.54 239.94
  Q 377.77 252.41 409.11 240.34
  C 447.44 225.57 471.51 188.33 468.44 147.75
  C 463.42 81.43 392.05 42.48 333.41 73.79
  A 0.16 0.16 0.0 0 0 333.43 74.08
  L 347.27 79.09
  A 0.58 0.57 -70.4 0 1 347.61 79.82
  L 334.51 115.78
  A 0.42 0.41 19.9 0 1 333.97 116.03
  Q 271.38 93.31 206.35 69.56
  Q 195.78 65.70 187.78 64.27
  Q 161.06 59.51 136.36 69.82
  C 80.28 93.24 61.84 163.44 99.55 211.25
  Q 118.85 235.73 149.40 243.43
  Q 180.65 251.31 211.74 236.98
  Q 213.36 236.23 214.75 235.24
  Q 215.15 234.95 214.69 234.78
  L 200.58 229.65
  Q 199.97 229.43 200.19 228.83
  Z"
/>
<rect fill="#3099b6" x="-19.63" y="-69.62" transform="translate(193.00,152.80) rotate(20.0)" width="39.26" height="139.24" rx="0.35"/>
<rect fill="#3099b6" x="-19.63" y="-69.63" transform="translate(354.77,155.93) rotate(20.0)" width="39.26" height="139.26" rx="0.33"/>
<circle fill="#3099b6" cx="274.21" cy="154.49" r="43.43"/>
<path fill="#3099b6" d="
  M 134.88 521.46
  A 0.28 0.28 0.0 0 1 134.60 521.74
  L 68.78 521.74
  A 0.28 0.28 0.0 0 1 68.50 521.46
  L 68.50 316.78
  A 0.28 0.28 0.0 0 1 68.78 316.50
  L 134.60 316.50
  A 0.28 0.28 0.0 0 1 134.88 316.78
  L 134.88 521.46
  Z
  M 128.96 322.77
  A 0.32 0.32 0.0 0 0 128.64 322.45
  L 74.78 322.45
  A 0.32 0.32 0.0 0 0 74.46 322.77
  L 74.46 515.45
  A 0.32 0.32 0.0 0 0 74.78 515.77
  L 128.64 515.77
  A 0.32 0.32 0.0 0 0 128.96 515.45
  L 128.96 322.77
  Z"
/>
<path fill="#3099b6" d="
  M 217.62 451.13
  Q 217.45 486.13 217.49 521.23
  Q 217.49 521.75 216.97 521.75
  L 153.02 521.75
  A 0.48 0.48 0.0 0 1 152.54 521.27
  L 152.54 316.77
  A 0.27 0.27 0.0 0 1 152.81 316.50
  Q 185.74 316.49 218.75 316.50
  C 235.24 316.50 254.93 317.84 269.57 324.19
  C 282.42 329.76 288.52 341.79 288.58 355.52
  Q 288.71 383.25 288.58 411.54
  C 288.51 426.16 281.71 438.83 267.91 444.37
  C 262.90 446.38 257.41 447.68 252.06 448.41
  Q 235.19 450.71 218.13 450.63
  Q 217.63 450.63 217.62 451.13
  Z
  M 212.33 444.50
  C 227.40 444.78 243.90 444.38 258.35 441.20
  C 274.47 437.65 282.70 427.15 282.71 410.64
  Q 282.74 383.88 282.68 355.50
  C 282.65 342.88 276.80 332.77 264.37 328.46
  C 250.06 323.48 233.83 322.49 218.77 322.47
  Q 188.32 322.42 159.06 322.46
  Q 158.50 322.46 158.50 323.01
  L 158.50 515.26
  Q 158.50 515.77 159.01 515.77
  L 211.03 515.77
  Q 211.58 515.77 211.58 515.22
  L 211.57 445.25
  Q 211.57 444.49 212.33 444.50
  Z"
/>
<path fill="#3099b6" d="
  M 446.44 454.91
  A 0.10 0.10 0.0 0 0 446.24 454.90
  L 428.95 521.22
  A 0.70 0.70 0.0 0 1 428.27 521.75
  L 382.71 521.75
  Q 382.28 521.75 382.15 521.33
  L 360.76 449.77
  Q 360.21 447.94 360.21 449.85
  L 360.22 521.14
  Q 360.22 521.75 359.61 521.75
  L 306.39 521.75
  Q 305.78 521.75 305.78 521.14
  L 305.78 316.98
  A 0.49 0.48 -0.0 0 1 306.27 316.50
  L 385.79 316.50
  Q 386.36 316.50 386.50 317.05
  L 405.81 395.00
  Q 406.17 396.45 406.49 394.99
  L 423.33 316.82
  A 0.42 0.41 5.9 0 1 423.74 316.50
  L 506.49 316.50
  Q 506.99 316.50 506.99 317.00
  L 506.99 521.50
  A 0.24 0.24 0.0 0 1 506.75 521.74
  L 446.97 521.75
  A 0.34 0.34 0.0 0 1 446.63 521.41
  Q 446.62 489.33 446.63 457.46
  Q 446.63 456.19 446.44 454.91
  Z
  M 354.25 409.19
  Q 354.25 407.34 354.78 409.11
  L 386.52 515.23
  Q 386.68 515.77 387.24 515.77
  L 423.70 515.77
  Q 424.22 515.77 424.35 515.27
  Q 437.47 465.14 450.57 415.01
  Q 451.29 412.27 451.58 410.95
  Q 452.53 406.68 452.53 411.05
  L 452.53 515.15
  Q 452.53 515.77 453.15 515.77
  L 500.50 515.77
  Q 501.02 515.77 501.02 515.25
  L 501.02 322.99
  Q 501.02 322.45 500.48 322.45
  L 428.76 322.45
  Q 428.19 322.45 428.07 323.00
  L 406.89 421.24
  Q 406.58 422.67 406.23 421.25
  L 381.82 322.82
  A 0.50 0.50 0.0 0 0 381.34 322.45
  L 312.28 322.45
  Q 311.75 322.45 311.75 322.97
  L 311.75 515.26
  Q 311.75 515.77 312.26 515.77
  L 353.61 515.77
  Q 354.25 515.77 354.25 515.14
  L 354.25 409.19
  Z"
/>
<path fill="#3099b6" d="
  M 211.58 350.51
  A 0.22 0.22 0.0 0 1 211.80 350.29
  L 216.97 350.29
  A 12.63 9.80 -0.0 0 1 229.60 360.09
  L 229.60 406.91
  A 12.63 9.80 0.0 0 1 216.97 416.71
  L 211.80 416.71
  A 0.22 0.22 0.0 0 1 211.58 416.49
  L 211.58 350.51
  Z
  M 217.46 356.63
  L 217.56 410.31
  A 0.20 0.20 0.0 0 0 217.76 410.51
  L 218.31 410.50
  A 5.47 5.16 -0.1 0 0 223.77 405.33
  L 223.69 361.57
  A 5.47 5.16 -0.1 0 0 218.21 356.42
  L 217.66 356.43
  A 0.20 0.20 0.0 0 0 217.46 356.63
  Z"
/>
</svg>
