<?xml version="1.0" encoding="UTF-8" standalone="no"?>
<!DOCTYPE svg PUBLIC "-//W3C//DTD SVG 1.1//EN" "http://www.w3.org/Graphics/SVG/1.1/DTD/svg11.dtd">
<svg xmlns="http://www.w3.org/2000/svg" version="1.1" viewBox="0.00 0.00 200.00 200.00">
<g stroke-width="2.00" fill="none" stroke-linecap="butt">
<path stroke="#9799c4" vector-effect="non-scaling-stroke" d="
  M 108.12 112.16
  L 71.95 90.49
  Q 71.74 90.37 71.53 90.48
  Q 68.07 92.28 64.81 94.34
  Q 64.72 94.39 64.81 94.45
  Q 86.71 107.50 108.18 120.35
  A 1.10 1.09 -43.6 0 0 109.28 120.37
  L 168.22 87.43
  A 1.06 1.05 75.8 0 0 168.77 86.50
  L 168.67 23.98
  Q 168.67 23.49 169.03 23.16
  C 177.49 15.48 164.70 6.02 159.72 14.07
  Q 156.76 18.87 161.31 23.13
  Q 161.68 23.48 161.69 23.99
  L 161.75 82.61
  A 0.71 0.70 -14.2 0 1 161.38 83.23
  L 109.53 112.18
  Q 108.82 112.58 108.12 112.16"
/>
<path stroke="#9799c4" vector-effect="non-scaling-stroke" d="
  M 108.46 89.44
  L 94.67 81.09
  A 1.89 1.88 -79.1 0 1 93.79 79.78
  C 93.22 76.20 90.26 73.14 86.46 73.58
  C 77.92 74.56 79.27 87.69 87.44 87.07
  Q 88.70 86.98 89.90 86.80
  Q 90.46 86.72 90.94 87.01
  L 108.27 97.54
  A 1.02 1.00 45.6 0 0 109.29 97.56
  L 148.04 75.73
  Q 148.51 75.47 148.51 74.93
  L 148.50 32.35
  A 0.16 0.15 75.6 0 0 148.27 32.21
  L 141.70 35.87
  Q 141.49 35.98 141.49 36.22
  L 141.55 70.81
  A 0.94 0.94 0.0 0 1 141.07 71.63
  L 109.38 89.46
  A 0.92 0.90 45.6 0 1 108.46 89.44"
/>
<path stroke="#9799c4" vector-effect="non-scaling-stroke" d="
  M 38.02 69.82
  L 90.29 40.76
  A 0.64 0.63 45.5 0 1 90.91 40.77
  Q 105.72 49.37 121.02 58.18
  C 122.59 59.09 122.44 61.59 123.72 63.04
  C 129.67 69.77 139.36 60.98 133.78 54.41
  Q 131.04 51.19 126.24 52.60
  Q 125.63 52.78 125.07 52.46
  L 91.26 32.84
  Q 90.68 32.50 90.09 32.83
  L 30.80 65.84
  Q 30.50 66.01 30.50 66.34
  Q 30.48 103.81 30.53 141.89
  A 0.08 0.07 -13.4 0 0 30.64 141.95
  Q 34.05 140.34 37.35 138.32
  Q 37.51 138.21 37.51 138.02
  L 37.46 70.77
  Q 37.46 70.13 38.02 69.82"
/>
<path stroke="#9799c4" vector-effect="non-scaling-stroke" d="
  M 91.34 64.16
  L 108.41 74.01
  Q 108.49 74.05 108.57 74.02
  Q 110.94 73.03 115.47 70.21
  A 0.04 0.04 0.0 0 0 115.47 70.14
  Q 104.31 63.52 91.02 55.76
  A 0.79 0.78 -44.4 0 0 90.23 55.76
  L 51.64 77.64
  Q 51.00 78.01 51.00 78.75
  L 51.01 114.80
  A 1.38 1.36 -21.1 0 1 50.55 115.82
  Q 46.34 119.60 48.49 124.13
  C 52.67 132.96 66.60 124.70 58.56 116.00
  A 2.06 2.05 -66.6 0 1 58.01 114.60
  L 57.98 82.67
  A 0.95 0.94 75.3 0 1 58.45 81.85
  L 89.89 64.15
  Q 90.62 63.74 91.34 64.16"
/>
<path stroke="#9799c4" vector-effect="non-scaling-stroke" d="
  M 150.17 170.93
  C 148.09 175.64 149.16 181.43 153.05 184.91
  Q 158.57 189.84 166.19 187.11
  Q 168.77 186.18 168.23 183.51
  A 0.41 0.41 0.0 0 0 167.56 183.29
  C 163.62 186.73 158.01 186.57 154.42 182.76
  C 146.16 173.97 157.41 160.57 167.68 168.60
  Q 168.49 169.23 168.40 168.21
  L 168.29 166.77
  A 1.98 1.97 -78.9 0 0 167.22 165.17
  C 160.78 161.90 153.15 164.21 150.17 170.93"
/>
<path stroke="#9799c4" vector-effect="non-scaling-stroke" d="
  M 90.03 174.48
  C 93.92 171.36 91.98 164.48 86.36 164.26
  Q 82.21 164.10 78.41 164.05
  Q 77.74 164.04 77.74 164.71
  L 77.74 187.05
  A 0.62 0.61 87.9 0 0 78.40 187.67
  C 83.34 187.30 91.39 189.09 92.85 182.13
  C 93.48 179.11 92.53 176.88 90.08 175.35
  Q 89.45 174.95 90.03 174.48"
/>
<path stroke="#9799c4" vector-effect="non-scaling-stroke" d="
  M 33.84 170.92
  A 0.32 0.32 0.0 0 1 34.39 170.70
  L 50.43 187.47
  A 0.32 0.32 0.0 0 0 50.98 187.25
  L 50.97 164.44
  A 0.32 0.32 0.0 0 0 50.49 164.16
  L 48.50 165.29
  A 0.32 0.32 0.0 0 0 48.34 165.57
  L 48.37 181.00
  A 0.32 0.32 0.0 0 1 47.82 181.22
  L 31.79 164.41
  A 0.32 0.32 0.0 0 0 31.24 164.63
  L 31.28 187.31
  A 0.32 0.32 0.0 0 0 31.60 187.63
  L 33.44 187.64
  A 0.32 0.32 0.0 0 0 33.76 187.32
  L 33.84 170.92"
/>
<path stroke="#9799c4" vector-effect="non-scaling-stroke" d="
  M 122.50 165.09
  A 0.86 0.86 0.0 0 0 121.06 164.45
  L 120.07 165.33
  A 0.86 0.86 0.0 0 0 119.79 165.97
  L 119.81 186.83
  A 0.86 0.86 0.0 0 0 120.67 187.69
  L 121.60 187.68
  A 0.86 0.86 0.0 0 0 122.46 186.82
  L 122.50 165.09"
/>
<path stroke="#9799c4" vector-effect="non-scaling-stroke" d="
  M 80.28 167.27
  L 80.26 173.17
  A 0.56 0.56 0.0 0 0 80.82 173.73
  L 85.54 173.74
  A 3.94 3.31 0.1 0 0 89.49 170.44
  L 89.49 170.04
  A 3.94 3.31 0.1 0 0 85.56 166.72
  L 80.84 166.71
  A 0.56 0.56 0.0 0 0 80.28 167.27"
/>
<path stroke="#9799c4" vector-effect="non-scaling-stroke" d="
  M 80.27 176.82
  L 80.25 184.48
  A 0.55 0.55 0.0 0 0 80.80 185.03
  L 85.50 185.04
  A 4.97 4.24 0.1 0 0 90.48 180.81
  L 90.48 180.53
  A 4.97 4.24 0.1 0 0 85.52 176.28
  L 80.82 176.27
  A 0.55 0.55 0.0 0 0 80.27 176.82"
/>
</g>
<path fill="#ffffff" d="
  M 0.00 0.00
  L 200.00 0.00
  L 200.00 200.00
  L 0.00 200.00
  L 0.00 0.00
  Z
  M 108.12 112.16
  L 71.95 90.49
  Q 71.74 90.37 71.53 90.48
  Q 68.07 92.28 64.81 94.34
  Q 64.72 94.39 64.81 94.45
  Q 86.71 107.50 108.18 120.35
  A 1.10 1.09 -43.6 0 0 109.28 120.37
  L 168.22 87.43
  A 1.06 1.05 75.8 0 0 168.77 86.50
  L 168.67 23.98
  Q 168.67 23.49 169.03 23.16
  C 177.49 15.48 164.70 6.02 159.72 14.07
  Q 156.76 18.87 161.31 23.13
  Q 161.68 23.48 161.69 23.99
  L 161.75 82.61
  A 0.71 0.70 -14.2 0 1 161.38 83.23
  L 109.53 112.18
  Q 108.82 112.58 108.12 112.16
  Z
  M 108.46 89.44
  L 94.67 81.09
  A 1.89 1.88 -79.1 0 1 93.79 79.78
  C 93.22 76.20 90.26 73.14 86.46 73.58
  C 77.92 74.56 79.27 87.69 87.44 87.07
  Q 88.70 86.98 89.90 86.80
  Q 90.46 86.72 90.94 87.01
  L 108.27 97.54
  A 1.02 1.00 45.6 0 0 109.29 97.56
  L 148.04 75.73
  Q 148.51 75.47 148.51 74.93
  L 148.50 32.35
  A 0.16 0.15 75.6 0 0 148.27 32.21
  L 141.70 35.87
  Q 141.49 35.98 141.49 36.22
  L 141.55 70.81
  A 0.94 0.94 0.0 0 1 141.07 71.63
  L 109.38 89.46
  A 0.92 0.90 45.6 0 1 108.46 89.44
  Z
  M 38.02 69.82
  L 90.29 40.76
  A 0.64 0.63 45.5 0 1 90.91 40.77
  Q 105.72 49.37 121.02 58.18
  C 122.59 59.09 122.44 61.59 123.72 63.04
  C 129.67 69.77 139.36 60.98 133.78 54.41
  Q 131.04 51.19 126.24 52.60
  Q 125.63 52.78 125.07 52.46
  L 91.26 32.84
  Q 90.68 32.50 90.09 32.83
  L 30.80 65.84
  Q 30.50 66.01 30.50 66.34
  Q 30.48 103.81 30.53 141.89
  A 0.08 0.07 -13.4 0 0 30.64 141.95
  Q 34.05 140.34 37.35 138.32
  Q 37.51 138.21 37.51 138.02
  L 37.46 70.77
  Q 37.46 70.13 38.02 69.82
  Z
  M 91.34 64.16
  L 108.41 74.01
  Q 108.49 74.05 108.57 74.02
  Q 110.94 73.03 115.47 70.21
  A 0.04 0.04 0.0 0 0 115.47 70.14
  Q 104.31 63.52 91.02 55.76
  A 0.79 0.78 -44.4 0 0 90.23 55.76
  L 51.64 77.64
  Q 51.00 78.01 51.00 78.75
  L 51.01 114.80
  A 1.38 1.36 -21.1 0 1 50.55 115.82
  Q 46.34 119.60 48.49 124.13
  C 52.67 132.96 66.60 124.70 58.56 116.00
  A 2.06 2.05 -66.6 0 1 58.01 114.60
  L 57.98 82.67
  A 0.95 0.94 75.3 0 1 58.45 81.85
  L 89.89 64.15
  Q 90.62 63.74 91.34 64.16
  Z
  M 150.17 170.93
  C 148.09 175.64 149.16 181.43 153.05 184.91
  Q 158.57 189.84 166.19 187.11
  Q 168.77 186.18 168.23 183.51
  A 0.41 0.41 0.0 0 0 167.56 183.29
  C 163.62 186.73 158.01 186.57 154.42 182.76
  C 146.16 173.97 157.41 160.57 167.68 168.60
  Q 168.49 169.23 168.40 168.21
  L 168.29 166.77
  A 1.98 1.97 -78.9 0 0 167.22 165.17
  C 160.78 161.90 153.15 164.21 150.17 170.93
  Z
  M 90.03 174.48
  C 93.92 171.36 91.98 164.48 86.36 164.26
  Q 82.21 164.10 78.41 164.05
  Q 77.74 164.04 77.74 164.71
  L 77.74 187.05
  A 0.62 0.61 87.9 0 0 78.40 187.67
  C 83.34 187.30 91.39 189.09 92.85 182.13
  C 93.48 179.11 92.53 176.88 90.08 175.35
  Q 89.45 174.95 90.03 174.48
  Z
  M 33.84 170.92
  A 0.32 0.32 0.0 0 1 34.39 170.70
  L 50.43 187.47
  A 0.32 0.32 0.0 0 0 50.98 187.25
  L 50.97 164.44
  A 0.32 0.32 0.0 0 0 50.49 164.16
  L 48.50 165.29
  A 0.32 0.32 0.0 0 0 48.34 165.57
  L 48.37 181.00
  A 0.32 0.32 0.0 0 1 47.82 181.22
  L 31.79 164.41
  A 0.32 0.32 0.0 0 0 31.24 164.63
  L 31.28 187.31
  A 0.32 0.32 0.0 0 0 31.60 187.63
  L 33.44 187.64
  A 0.32 0.32 0.0 0 0 33.76 187.32
  L 33.84 170.92
  Z
  M 122.50 165.09
  A 0.86 0.86 0.0 0 0 121.06 164.45
  L 120.07 165.33
  A 0.86 0.86 0.0 0 0 119.79 165.97
  L 119.81 186.83
  A 0.86 0.86 0.0 0 0 120.67 187.69
  L 121.60 187.68
  A 0.86 0.86 0.0 0 0 122.46 186.82
  L 122.50 165.09
  Z"
/>
<path fill="#2e3388" d="
  M 109.53 112.18
  L 161.38 83.23
  A 0.71 0.70 -14.2 0 0 161.75 82.61
  L 161.69 23.99
  Q 161.68 23.48 161.31 23.13
  Q 156.76 18.87 159.72 14.07
  C 164.70 6.02 177.49 15.48 169.03 23.16
  Q 168.67 23.49 168.67 23.98
  L 168.77 86.50
  A 1.06 1.05 75.8 0 1 168.22 87.43
  L 109.28 120.37
  A 1.10 1.09 -43.6 0 1 108.18 120.35
  Q 86.71 107.50 64.81 94.45
  Q 64.72 94.39 64.81 94.34
  Q 68.07 92.28 71.53 90.48
  Q 71.74 90.37 71.95 90.49
  L 108.12 112.16
  Q 108.82 112.58 109.53 112.18
  Z"
/>
<path fill="#2e3388" d="
  M 108.46 89.44
  A 0.92 0.90 45.6 0 0 109.38 89.46
  L 141.07 71.63
  A 0.94 0.94 0.0 0 0 141.55 70.81
  L 141.49 36.22
  Q 141.49 35.98 141.70 35.87
  L 148.27 32.21
  A 0.16 0.15 75.6 0 1 148.50 32.35
  L 148.51 74.93
  Q 148.51 75.47 148.04 75.73
  L 109.29 97.56
  A 1.02 1.00 45.6 0 1 108.27 97.54
  L 90.94 87.01
  Q 90.46 86.72 89.90 86.80
  Q 88.70 86.98 87.44 87.07
  C 79.27 87.69 77.92 74.56 86.46 73.58
  C 90.26 73.14 93.22 76.20 93.79 79.78
  A 1.89 1.88 -79.1 0 0 94.67 81.09
  L 108.46 89.44
  Z"
/>
<path fill="#2e3388" d="
  M 37.46 70.77
  L 37.51 138.02
  Q 37.51 138.21 37.35 138.32
  Q 34.05 140.34 30.64 141.95
  A 0.08 0.07 -13.4 0 1 30.53 141.89
  Q 30.48 103.81 30.50 66.34
  Q 30.50 66.01 30.80 65.84
  L 90.09 32.83
  Q 90.68 32.50 91.26 32.84
  L 125.07 52.46
  Q 125.63 52.78 126.24 52.60
  Q 131.04 51.19 133.78 54.41
  C 139.36 60.98 129.67 69.77 123.72 63.04
  C 122.44 61.59 122.59 59.09 121.02 58.18
  Q 105.72 49.37 90.91 40.77
  A 0.64 0.63 45.5 0 0 90.29 40.76
  L 38.02 69.82
  Q 37.46 70.13 37.46 70.77
  Z"
/>
<path fill="#2e3388" d="
  M 89.89 64.15
  L 58.45 81.85
  A 0.95 0.94 75.3 0 0 57.98 82.67
  L 58.01 114.60
  A 2.06 2.05 -66.6 0 0 58.56 116.00
  C 66.60 124.70 52.67 132.96 48.49 124.13
  Q 46.34 119.60 50.55 115.82
  A 1.38 1.36 -21.1 0 0 51.01 114.80
  L 51.00 78.75
  Q 51.00 78.01 51.64 77.64
  L 90.23 55.76
  A 0.79 0.78 -44.4 0 1 91.02 55.76
  Q 104.31 63.52 115.47 70.14
  A 0.04 0.04 0.0 0 1 115.47 70.21
  Q 110.94 73.03 108.57 74.02
  Q 108.49 74.05 108.41 74.01
  L 91.34 64.16
  Q 90.62 63.74 89.89 64.15
  Z"
/>
<path fill="#2e3388" d="
  M 150.17 170.93
  C 153.15 164.21 160.78 161.90 167.22 165.17
  A 1.98 1.97 -78.9 0 1 168.29 166.77
  L 168.40 168.21
  Q 168.49 169.23 167.68 168.60
  C 157.41 160.57 146.16 173.97 154.42 182.76
  C 158.01 186.57 163.62 186.73 167.56 183.29
  A 0.41 0.41 0.0 0 1 168.23 183.51
  Q 168.77 186.18 166.19 187.11
  Q 158.57 189.84 153.05 184.91
  C 149.16 181.43 148.09 175.64 150.17 170.93
  Z"
/>
<path fill="#2e3388" d="
  M 90.08 175.35
  C 92.53 176.88 93.48 179.11 92.85 182.13
  C 91.39 189.09 83.34 187.30 78.40 187.67
  A 0.62 0.61 87.9 0 1 77.74 187.05
  L 77.74 164.71
  Q 77.74 164.04 78.41 164.05
  Q 82.21 164.10 86.36 164.26
  C 91.98 164.48 93.92 171.36 90.03 174.48
  Q 89.45 174.95 90.08 175.35
  Z
  M 80.28 167.27
  L 80.26 173.17
  A 0.56 0.56 0.0 0 0 80.82 173.73
  L 85.54 173.74
  A 3.94 3.31 0.1 0 0 89.49 170.44
  L 89.49 170.04
  A 3.94 3.31 0.1 0 0 85.56 166.72
  L 80.84 166.71
  A 0.56 0.56 0.0 0 0 80.28 167.27
  Z
  M 80.27 176.82
  L 80.25 184.48
  A 0.55 0.55 0.0 0 0 80.80 185.03
  L 85.50 185.04
  A 4.97 4.24 0.1 0 0 90.48 180.81
  L 90.48 180.53
  A 4.97 4.24 0.1 0 0 85.52 176.28
  L 80.82 176.27
  A 0.55 0.55 0.0 0 0 80.27 176.82
  Z"
/>
<path fill="#2e3388" d="
  M 33.84 170.92
  L 33.76 187.32
  A 0.32 0.32 0.0 0 1 33.44 187.64
  L 31.60 187.63
  A 0.32 0.32 0.0 0 1 31.28 187.31
  L 31.24 164.63
  A 0.32 0.32 0.0 0 1 31.79 164.41
  L 47.82 181.22
  A 0.32 0.32 0.0 0 0 48.37 181.00
  L 48.34 165.57
  A 0.32 0.32 0.0 0 1 48.50 165.29
  L 50.49 164.16
  A 0.32 0.32 0.0 0 1 50.97 164.44
  L 50.98 187.25
  A 0.32 0.32 0.0 0 1 50.43 187.47
  L 34.39 170.70
  A 0.32 0.32 0.0 0 0 33.84 170.92
  Z"
/>
<path fill="#2e3388" d="
  M 122.50 165.09
  L 122.46 186.82
  A 0.86 0.86 0.0 0 1 121.60 187.68
  L 120.67 187.69
  A 0.86 0.86 0.0 0 1 119.81 186.83
  L 119.79 165.97
  A 0.86 0.86 0.0 0 1 120.07 165.33
  L 121.06 164.45
  A 0.86 0.86 0.0 0 1 122.50 165.09
  Z"
/>
<path fill="#ffffff" d="
  M 80.28 167.27
  A 0.56 0.56 0.0 0 1 80.84 166.71
  L 85.56 166.72
  A 3.94 3.31 0.1 0 1 89.49 170.04
  L 89.49 170.44
  A 3.94 3.31 0.1 0 1 85.54 173.74
  L 80.82 173.73
  A 0.56 0.56 0.0 0 1 80.26 173.17
  L 80.28 167.27
  Z"
/>
<path fill="#ffffff" d="
  M 80.27 176.82
  A 0.55 0.55 0.0 0 1 80.82 176.27
  L 85.52 176.28
  A 4.97 4.24 0.1 0 1 90.48 180.53
  L 90.48 180.81
  A 4.97 4.24 0.1 0 1 85.50 185.04
  L 80.80 185.03
  A 0.55 0.55 0.0 0 1 80.25 184.48
  L 80.27 176.82
  Z"
/>
</svg>
