<?xml version="1.0" encoding="utf-8"?>
<!-- Generator: Adobe Illustrator 27.0.0, SVG Export Plug-In . SVG Version: 6.00 Build 0)  -->
<svg version="1.1" id="Layer_1" xmlns="http://www.w3.org/2000/svg" xmlns:xlink="http://www.w3.org/1999/xlink" x="0px" y="0px"
	 viewBox="0 0 180 180" style="enable-background:new 0 0 180 180;" xml:space="preserve">
<style type="text/css">
	.st0{fill:none;stroke:#9799C4;stroke-width:2;}
	.st1{fill:#2E3388;}
</style>
<g>
	<path vector-effect="non-scaling-stroke" class="st0" d="M98,102.6L61.8,80.9c-0.1-0.1-0.3-0.1-0.4,0c-2.3,1.2-4.5,2.5-6.7,3.9
		c-0.1,0-0.1,0.1,0,0.1c14.6,8.7,29.1,17.3,43.4,25.9c0.3,0.2,0.8,0.2,1.1,0l58.9-32.9c0.3-0.2,0.6-0.5,0.6-0.9l-0.1-62.5
		c0-0.3,0.1-0.6,0.4-0.8c8.5-7.7-4.3-17.1-9.3-9.1c-2,3.2-1.4,6.2,1.6,9.1c0.2,0.2,0.4,0.5,0.4,0.9l0.1,58.6c0,0.3-0.1,0.5-0.4,0.6
		l-51.8,28.9C98.9,102.9,98.4,102.9,98,102.6"/>
	<path vector-effect="non-scaling-stroke" class="st0" d="M98.3,79.9l-13.8-8.4c-0.5-0.3-0.8-0.8-0.9-1.3c-0.6-3.6-3.5-6.6-7.3-6.2
		c-8.5,1-7.2,14.1,1,13.5c0.8-0.1,1.7-0.1,2.5-0.3c0.4-0.1,0.7,0,1,0.2L98.1,88c0.3,0.2,0.7,0.2,1,0l38.7-21.8
		c0.3-0.2,0.5-0.4,0.5-0.8V22.8c0-0.1-0.1-0.2-0.2-0.2H138l-6.6,3.7c-0.1,0.1-0.2,0.2-0.2,0.4l0.1,34.6c0,0.3-0.2,0.7-0.5,0.8
		L99.2,79.9C98.9,80.1,98.6,80.1,98.3,79.9"/>
	<path vector-effect="non-scaling-stroke" class="st0" d="M27.9,60.3l52.3-29.1c0.2-0.1,0.4-0.1,0.6,0c9.9,5.7,19.9,11.5,30.1,17.4
		c1.6,0.9,1.4,3.4,2.7,4.9c5.9,6.7,15.6-2.1,10.1-8.6c-1.8-2.1-4.3-2.8-7.5-1.8c-0.4,0.1-0.8,0.1-1.2-0.1L81.1,23.3
		c-0.4-0.2-0.8-0.2-1.2,0l-59.3,33c-0.2,0.1-0.3,0.3-0.3,0.5c0,25,0,50.2,0,75.6c0,0,0,0.1,0.1,0.1l0,0c2.3-1.1,4.5-2.3,6.7-3.6
		c0.1-0.1,0.2-0.2,0.2-0.3V61.4C27.3,60.8,27.5,60.5,27.9,60.3"/>
	<path vector-effect="non-scaling-stroke" class="st0" d="M81.2,54.6l17.1,9.8c0.1,0,0.1,0,0.2,0c1.6-0.7,3.9-1.9,6.9-3.8
		c0,0,0,0,0-0.1l0,0c-7.4-4.4-15.6-9.2-24.5-14.4c-0.2-0.1-0.5-0.1-0.8,0l-38.6,22c-0.4,0.2-0.6,0.6-0.6,1.1v36.1
		c0,0.4-0.2,0.8-0.5,1c-2.8,2.5-3.5,5.3-2.1,8.3c4.2,8.8,18.1,0.6,10.1-8.1c-0.4-0.4-0.5-0.9-0.6-1.4V73.2c0-0.3,0.2-0.7,0.5-0.8
		l31.4-17.7C80.2,54.3,80.7,54.3,81.2,54.6"/>
	<path vector-effect="non-scaling-stroke" class="st0" d="M140,161.4c-2.1,4.7-1,10.5,2.9,14c3.7,3.3,8.1,4,13.1,2.2
		c1.7-0.6,2.4-1.8,2-3.6c0-0.2-0.3-0.4-0.5-0.3c-0.1,0-0.1,0-0.2,0.1c-3.9,3.4-9.6,3.3-13.1-0.5c-8.3-8.8,3-22.2,13.3-14.2
		c0.5,0.4,0.8,0.3,0.7-0.4l-0.1-1.4c-0.1-0.7-0.5-1.3-1.1-1.6C150.6,152.4,143,154.7,140,161.4"/>
	<path vector-effect="non-scaling-stroke" class="st0" d="M79.9,164.9c3.9-3.1,2-10-3.7-10.2c-2.8-0.1-5.4-0.2-7.9-0.2
		c-0.4,0-0.7,0.2-0.7,0.7v22.3c0,0.3,0.3,0.6,0.6,0.6c0,0,0,0,0.1,0c4.9-0.4,13,1.4,14.4-5.5c0.6-3-0.3-5.2-2.8-6.8
		C79.5,165.5,79.5,165.2,79.9,164.9"/>
	<path vector-effect="non-scaling-stroke" class="st0" d="M23.7,161.4c0-0.2,0.1-0.3,0.3-0.3c0.1,0,0.2,0,0.2,0.1l16,16.8
		c0.1,0.1,0.3,0.1,0.5,0c0.1-0.1,0.1-0.1,0.1-0.2V155c0-0.2-0.1-0.3-0.3-0.3c-0.1,0-0.1,0-0.2,0l-2,1.1c-0.1,0.1-0.2,0.2-0.2,0.3
		v15.4c0,0.2-0.1,0.3-0.3,0.3c-0.1,0-0.2,0-0.2-0.1l-16-16.8c-0.1-0.1-0.3-0.1-0.5,0C21,155,21,155,21,155.1v22.7
		c0,0.2,0.1,0.3,0.3,0.3l0,0h1.8c0.2,0,0.3-0.1,0.3-0.3L23.7,161.4"/>
	<path vector-effect="non-scaling-stroke" class="st0" d="M112.3,155.5c0-0.5-0.4-0.9-0.9-0.9c-0.2,0-0.4,0.1-0.6,0.2l-1,0.9
		c-0.2,0.2-0.3,0.4-0.3,0.6v20.9c0,0.5,0.4,0.9,0.9,0.9l0,0h0.9c0.5,0,0.9-0.4,0.9-0.9L112.3,155.5"/>
	<path vector-effect="non-scaling-stroke" class="st0" d="M70.1,157.7v5.9c0,0.3,0.3,0.6,0.6,0.6h4.7c2.2,0,3.9-1.5,3.9-3.3l0,0
		v-0.4c0-1.8-1.8-3.3-3.9-3.3h-4.7C70.4,157.2,70.1,157.4,70.1,157.7"/>
	<path vector-effect="non-scaling-stroke" class="st0" d="M70.1,167.3v7.7c0,0.3,0.2,0.6,0.5,0.6l0,0h4.7c2.7,0,5-1.9,5-4.2l0,0V171
		c0-2.3-2.2-4.2-5-4.2h-4.7C70.4,166.7,70.1,167,70.1,167.3L70.1,167.3"/>
</g>
<path class="st1" d="M99.4,102.6l51.8-28.9c0.2-0.1,0.4-0.4,0.4-0.6l-0.1-58.6c0-0.3-0.1-0.6-0.4-0.9c-3-2.8-3.6-5.9-1.6-9.1
	c5-8.1,17.8,1.4,9.3,9.1c-0.2,0.2-0.4,0.5-0.4,0.8l0.1,62.5c0,0.4-0.2,0.7-0.6,0.9L99,110.7c-0.3,0.2-0.8,0.2-1.1,0
	c-14.3-8.6-28.8-17.2-43.4-25.9c-0.1,0-0.1-0.1,0-0.1c2.2-1.4,4.4-2.7,6.7-3.9c0.1-0.1,0.3-0.1,0.4,0L98,102.6
	C98.4,102.9,98.9,102.9,99.4,102.6z"/>
<path class="st1" d="M98.3,79.9c0.3,0.2,0.6,0.2,0.9,0l31.7-17.8c0.3-0.2,0.5-0.5,0.5-0.8l-0.1-34.6c0-0.2,0.1-0.3,0.2-0.4l6.6-3.7
	c0.1,0,0.2,0,0.2,0.1v0.1v42.6c0,0.4-0.2,0.6-0.5,0.8L99.1,88c-0.3,0.2-0.7,0.2-1,0L80.8,77.5c-0.3-0.2-0.7-0.3-1-0.2
	c-0.8,0.1-1.6,0.2-2.5,0.3c-8.2,0.6-9.5-12.5-1-13.5c3.8-0.4,6.8,2.6,7.3,6.2c0.1,0.5,0.4,1,0.9,1.3L98.3,79.9z"/>
<path class="st1" d="M27.3,61.2v67.2c0,0.1-0.1,0.2-0.2,0.3c-2.2,1.3-4.4,2.6-6.7,3.6h-0.1l0,0c0-25.4,0-50.6,0-75.6
	c0-0.2,0.1-0.4,0.3-0.5l59.3-33c0.4-0.2,0.8-0.2,1.2,0l33.8,19.6c0.4,0.2,0.8,0.3,1.2,0.1c3.2-0.9,5.7-0.3,7.5,1.8
	c5.6,6.6-4.1,15.4-10.1,8.6c-1.3-1.5-1.1-4-2.7-4.9C100.7,42.8,90.6,37,80.7,31.2c-0.2-0.1-0.4-0.1-0.6,0L27.9,60.3
	C27.5,60.5,27.3,60.8,27.3,61.2z"/>
<path class="st1" d="M79.7,54.6L48.3,72.3c-0.3,0.2-0.5,0.5-0.5,0.8V105c0,0.5,0.2,1,0.6,1.4c8,8.7-5.9,17-10.1,8.1
	c-1.4-3-0.7-5.8,2.1-8.3c0.3-0.3,0.5-0.6,0.5-1V69.1c0-0.5,0.2-0.9,0.6-1.1l38.6-21.9c0.2-0.1,0.5-0.1,0.8,0
	c8.9,5.2,17,10,24.5,14.4c0,0,0,0,0,0.1l0,0c-3,1.9-5.3,3.1-6.9,3.8c-0.1,0-0.1,0-0.2,0l-17.1-9.8C80.7,54.3,80.2,54.3,79.7,54.6z"
	/>
<path class="st1" d="M140,161.4c3-6.7,10.6-9,17.1-5.8c0.6,0.3,1,0.9,1.1,1.6l0.1,1.4c0.1,0.7-0.2,0.8-0.7,0.4
	c-10.3-8-21.5,5.4-13.3,14.2c3.6,3.8,9.2,4,13.1,0.5c0.2-0.1,0.4-0.1,0.6,0c0,0.1,0.1,0.1,0.1,0.2c0.4,1.8-0.3,3-2,3.6
	c-5.1,1.8-9.5,1.1-13.1-2.2C139,171.9,137.9,166.1,140,161.4z"/>
<path class="st1" d="M79.9,165.8c2.4,1.5,3.4,3.8,2.8,6.8c-1.5,7-9.5,5.2-14.4,5.5c-0.3,0-0.6-0.2-0.7-0.6c0,0,0,0,0-0.1v-22.3
	c0-0.4,0.2-0.7,0.7-0.7c2.5,0,5.2,0.1,7.9,0.2c5.6,0.2,7.6,7.1,3.7,10.2C79.5,165.2,79.5,165.5,79.9,165.8z M70.1,157.7v5.9
	c0,0.3,0.3,0.6,0.6,0.6h4.7c2.2,0,3.9-1.5,3.9-3.3l0,0v-0.4c0-1.8-1.8-3.3-3.9-3.3h-4.7C70.4,157.2,70.1,157.4,70.1,157.7z
	 M70.1,167.3v7.7c0,0.3,0.2,0.6,0.5,0.6l0,0h4.7c2.7,0,5-1.9,5-4.2l0,0V171c0-2.3-2.2-4.2-5-4.2h-4.7
	C70.4,166.7,70.1,167,70.1,167.3L70.1,167.3z"/>
<path class="st1" d="M23.7,161.4l-0.1,16.4c0,0.2-0.1,0.3-0.3,0.3h-1.8c-0.2,0-0.3-0.1-0.3-0.3l0,0v-22.7c0-0.2,0.1-0.3,0.3-0.3
	c0.1,0,0.2,0,0.2,0.1l16,16.8c0.1,0.1,0.3,0.1,0.5,0c0.1-0.1,0.1-0.1,0.1-0.2v-15.4c0-0.1,0.1-0.2,0.2-0.3l2-1.1
	c0.2-0.1,0.3,0,0.4,0.1c0,0,0,0.1,0,0.2v22.8c0,0.2-0.1,0.3-0.3,0.3c-0.1,0-0.2,0-0.2-0.1l-16-16.8c-0.1-0.1-0.3-0.1-0.5,0
	C23.7,161.2,23.7,161.3,23.7,161.4z"/>
<path class="st1" d="M112.3,155.5v21.7c0,0.5-0.4,0.9-0.9,0.9h-0.9c-0.5,0-0.9-0.4-0.9-0.9l0,0v-20.9c0-0.2,0.1-0.5,0.3-0.6l1-0.9
	c0.4-0.3,0.9-0.3,1.2,0.1C112.3,155.1,112.3,155.3,112.3,155.5z"/>
</svg>
